<svg width="16" height="13" viewBox="0 0 16 13" fill="none" xmlns="http://www.w3.org/2000/svg">
<path d="M16 1.53887C15.3981 1.80137 14.7616 1.97583 14.11 2.05687C14.7967 1.6495 15.3101 1.00443 15.553 0.243867C14.91 0.625204 14.2065 0.893743 13.473 1.03787C13.0232 0.557647 12.4395 0.223786 11.7975 0.0796617C11.1555 -0.0644627 10.485 -0.012189 9.87318 0.229691C9.2613 0.471572 8.73632 0.891878 8.36642 1.436C7.99653 1.98013 7.79883 2.62292 7.799 3.28087C7.799 3.54087 7.821 3.79087 7.875 4.02887C6.57008 3.96489 5.29336 3.62621 4.1283 3.03498C2.96325 2.44375 1.93609 1.61328 1.114 0.597867C0.692819 1.31973 0.562609 2.17498 0.749883 2.98947C0.937158 3.80397 1.42783 4.51646 2.122 4.98187C1.60276 4.96794 1.09447 4.82938 0.64 4.57787V4.61387C0.64087 5.3713 0.902665 6.1053 1.38132 6.69233C1.85997 7.27935 2.52625 7.68354 3.268 7.83687C2.98739 7.91082 2.69819 7.94714 2.408 7.94487C2.19959 7.94857 1.99139 7.9298 1.787 7.88887C1.99894 8.53989 2.40749 9.10921 2.95639 9.51842C3.5053 9.92764 4.16756 10.1566 4.852 10.1739C3.69094 11.0819 2.25897 11.5745 0.785 11.5729C0.516 11.5729 0.258 11.5609 0 11.5279C1.49988 12.4944 3.24768 13.0057 5.032 12.9999C11.068 12.9999 14.368 7.99987 14.368 3.66587C14.368 3.52087 14.363 3.38087 14.356 3.24187C15.003 2.77885 15.5601 2.20175 16 1.53887Z" fill="#EE4B21"/>
</svg>
