<svg width="16" height="11" viewBox="0 0 16 11" fill="none" xmlns="http://www.w3.org/2000/svg">
<path fill-rule="evenodd" clip-rule="evenodd" d="M15.32 1.06C14.886 0.288 14.415 0.146 13.456 0.092C12.498 0.027 10.089 0 8.002 0C5.911 0 3.501 0.0270001 2.544 0.0910001C1.587 0.146 1.115 0.287 0.677 1.06C0.23 1.831 0 3.159 0 5.497V5.505C0 7.833 0.23 9.171 0.677 9.934C1.115 10.706 1.586 10.846 2.543 10.911C3.501 10.967 5.911 11 8.002 11C10.089 11 12.498 10.967 13.457 10.912C14.416 10.847 14.887 10.707 15.321 9.935C15.772 9.172 16 7.834 16 5.506V5.498C16 3.159 15.772 1.831 15.32 1.06Z" fill="#EE4B21"/>
<path fill-rule="evenodd" clip-rule="evenodd" d="M6 8.5V2.5L11 5.5L6 8.5Z" fill="#FAFAFA"/>
</svg>
