<svg width="15" height="15" viewBox="0 0 15 15" fill="none" xmlns="http://www.w3.org/2000/svg">
<path fill-rule="evenodd" clip-rule="evenodd" d="M9.375 0.78125H6.83975C5.69114 0.781238 4.78137 0.781231 4.06936 0.876963C3.3366 0.975475 2.74351 1.18305 2.27578 1.65078C1.80805 2.11851 1.60048 2.7116 1.50196 3.44436C1.40623 4.15637 1.40624 5.06614 1.40625 6.21473V10C1.40625 11.1701 2.26378 12.14 3.38469 12.3154C3.47093 12.7929 3.63596 13.2005 3.96772 13.5323C4.34392 13.9085 4.81759 14.0703 5.38016 14.1459C5.92201 14.2187 6.61094 14.2188 7.46569 14.2188H9.40931C10.2641 14.2188 10.953 14.2187 11.4949 14.1459C12.0574 14.0703 12.5311 13.9085 12.9073 13.5323C13.2835 13.1561 13.4453 12.6824 13.5209 12.1199C13.5937 11.578 13.5938 10.8891 13.5938 10.0343V6.84069C13.5938 5.98596 13.5937 5.29701 13.5209 4.75516C13.4453 4.19259 13.2835 3.71892 12.9073 3.34272C12.5755 3.01096 12.1679 2.84593 11.6904 2.75969C11.515 1.63878 10.5451 0.78125 9.375 0.78125ZM10.7058 2.66948C10.5166 2.11639 9.99225 1.71875 9.375 1.71875H6.875C5.68324 1.71875 4.83657 1.71974 4.19428 1.8061C3.56548 1.89064 3.20319 2.04918 2.93869 2.31369C2.67418 2.57819 2.51564 2.94048 2.4311 3.56928C2.34474 4.21157 2.34375 5.05824 2.34375 6.25V10C2.34375 10.6173 2.7414 11.1416 3.29448 11.3308C3.28124 10.9496 3.28124 10.5186 3.28125 10.0343V6.84069C3.28124 5.98596 3.28123 5.29701 3.35408 4.75516C3.42971 4.19259 3.59152 3.71892 3.96772 3.34272C4.34392 2.96652 4.81759 2.80471 5.38016 2.72908C5.92201 2.65623 6.61094 2.65624 7.46569 2.65625H9.40931C9.89356 2.65624 10.3246 2.65624 10.7058 2.66948ZM4.63063 4.00563C4.80361 3.83266 5.04647 3.71988 5.50507 3.65822C5.97717 3.59474 6.60287 3.59375 7.5 3.59375H9.375C10.2721 3.59375 10.8978 3.59474 11.3699 3.65822C11.8286 3.71988 12.0714 3.83266 12.2444 4.00563C12.4174 4.17861 12.5301 4.42147 12.5918 4.88007C12.6553 5.35217 12.6562 5.97786 12.6562 6.875V10C12.6562 10.8971 12.6553 11.5228 12.5918 11.9949C12.5301 12.4536 12.4174 12.6964 12.2444 12.8694C12.0714 13.0424 11.8286 13.1551 11.3699 13.2168C10.8978 13.2803 10.2721 13.2812 9.375 13.2812H7.5C6.60287 13.2812 5.97717 13.2803 5.50507 13.2168C5.04647 13.1551 4.80361 13.0424 4.63063 12.8694C4.45766 12.6964 4.34488 12.4536 4.28322 11.9949C4.21974 11.5228 4.21875 10.8971 4.21875 10V6.875C4.21875 5.97786 4.21974 5.35217 4.28322 4.88007C4.34488 4.42147 4.45766 4.17861 4.63063 4.00563Z" fill="#1C274C" fill-opacity="0.5"/>
</svg>
